<svg width="24" height="14" viewBox="0 0 24 14" fill="none" xmlns="http://www.w3.org/2000/svg">
<path d="M12 3C9.79403 3 8 4.79403 8 7.00005C8 9.20607 9.79403 11.0001 12 11.0001C14.2061 11.0001 16.0001 9.20607 16.0001 7.00005C16.0001 4.79403 14.2061 3 12 3ZM12 10.0001C10.346 10.0001 9 8.65411 9 7.0001C9 5.34609 10.346 4.00005 12 4.00005C13.6541 4.00005 15.0001 5.34609 15.0001 7.0001C15.0001 8.65411 13.6541 10.0001 12 10.0001Z" fill="black"/>
<path d="M23.9111 6.71612C23.7221 6.4411 19.18 0 11.9999 0C5.83883 0 0.348744 6.40411 0.11774 6.67712C-0.0392467 6.86312 -0.0392467 7.13613 0.11774 7.32311C0.348744 7.59612 5.83883 14.0002 11.9999 14.0002C18.1611 14.0002 23.6511 7.59612 23.8821 7.32311C24.0271 7.15113 24.0401 6.90212 23.9111 6.71612ZM11.9999 13.0002C7.06088 13.0002 2.36478 8.29016 1.17179 7.00014C2.36281 5.70914 7.05389 1.00005 11.9999 1.00005C17.779 1.00005 21.8581 5.70314 22.8541 6.97314C21.7041 8.22214 16.981 13.0002 11.9999 13.0002Z" fill="black"/>
</svg>
